<svg xmlns:xlink="http://www.w3.org/1999/xlink" width="28" height="28" viewBox="0 0 39 40" fill="none"
     xmlns="http://www.w3.org/2000/svg">
    <path d="M30.9113 17.8697C24.714 14.19 14.3528 13.8027 8.44604 15.6425C7.47771 15.933 6.50938 15.352 6.21888 14.4805C5.92838 13.5122 6.50938 12.5439 7.38087 12.2534C14.256 10.2199 25.5855 10.6072 32.7511 14.8679C33.6226 15.352 33.9131 16.514 33.4289 17.3855C32.9448 18.0633 31.7828 18.3538 30.9113 17.8697ZM30.7176 23.2923C30.2334 23.9701 29.3619 24.2606 28.6841 23.7765C23.4551 20.581 15.5148 19.6127 9.41437 21.5493C8.6397 21.743 7.76821 21.3557 7.57454 20.581C7.38087 19.8063 7.76821 18.9348 8.54287 18.7412C15.6117 16.6108 24.3266 17.676 30.3303 21.3557C30.9113 21.6462 31.2018 22.6145 30.7176 23.2923ZM28.3936 28.6181C28.0063 29.1991 27.3284 29.3928 26.7475 29.0055C22.1963 26.1973 16.4832 25.6163 9.70486 27.1656C9.02703 27.3593 8.44604 26.8751 8.25237 26.2941C8.0587 25.6163 8.54287 25.0353 9.12387 24.8416C16.4832 23.1955 22.8741 23.8733 27.9094 26.972C28.5873 27.2625 28.6841 28.0371 28.3936 28.6181ZM19.485 0.633423C16.9417 0.633423 14.4234 1.13435 12.0737 2.10762C9.72405 3.08088 7.5891 4.50741 5.79075 6.30576C2.15881 9.9377 0.118408 14.8637 0.118408 20C0.118408 25.1363 2.15881 30.0623 5.79075 33.6942C7.5891 35.4926 9.72405 36.9191 12.0737 37.8924C14.4234 38.8656 16.9417 39.3666 19.485 39.3666C24.6213 39.3666 29.5473 37.3262 33.1792 33.6942C36.8112 30.0623 38.8516 25.1363 38.8516 20C38.8516 17.4567 38.3506 14.9384 37.3774 12.5887C36.4041 10.2391 34.9776 8.10411 33.1792 6.30576C31.3809 4.50741 29.2459 3.08088 26.8963 2.10762C24.5466 1.13435 22.0282 0.633423 19.485 0.633423Z"
          fill="#000000" fill-opacity="0.9"></path>
</svg>
